<?xml version="1.0" standalone="no"?>
<!DOCTYPE svg PUBLIC "-//W3C//DTD SVG 1.1//EN"
"http://www.w3.org/Graphics/SVG/1.1/DTD/svg11.dtd">
<svg width="200mm" height="200mm" viewBox="-250 -250 500 500" version="1.1"
xmlns="http://www.w3.org/2000/svg"
xmlns:xlink="http://www.w3.org/1999/xlink">
<g fill-rule="evenodd"><path d="M 59.6552,98.6207 L 79.6552,2.06897 L 79.6552,0.689655 L 78.9655,0.689655 L 78.9655,-1.42109e-14 L 77.5862,-1.42109e-14 L 40.3448,5.51724 L 39.6552,5.51724 L 38.9655,6.2069 L 38.9655,6.89655 L 20.3448,98.6207 L 20.3448,99.3103 L 21.0345,99.3103 L 21.0345,100 L 58.2759,100 L 59.6552,98.6207 z " style="fill-opacity:0.5;fill:rgb(153,204,0);stroke:rgb(153,204,0);stroke-width:2"/></g>
<g fill-rule="evenodd"><path d="M 115.517,199.31 L 116.207,199.31 L 116.207,198.621 L 96.8966,106.897 L 96.8966,106.207 L 96.2069,105.517 L 95.5172,105.517 L 58.2759,100 L 56.8966,101.379 L 56.8966,102.069 L 76.2069,198.621 L 76.8966,199.31 L 76.8966,200 L 115.517,200 L 115.517,199.31 z " style="fill-opacity:0.5;fill:rgb(153,204,0);stroke:rgb(153,204,0);stroke-width:2"/></g>
<g fill-rule="evenodd"><path d="M 115.517,199.31 L 116.897,197.931 L 118.276,196.552 L 138.276,100 L 138.276,99.3103 L 138.276,98.6207 L 138.276,97.931 L 118.966,1.37931 L 118.276,0.689655 L 118.276,-1.42109e-14 L 117.586,-1.42109e-14 L 117.586,-0.689655 L 116.207,-0.689655 L 78.9655,-0.689655 L 77.5862,-0.689655 L 40.3448,4.82759 L 39.6552,4.82759 L 38.9655,5.51724 L 38.2759,6.2069 L 38.2759,6.89655 L 19.6552,98.6207 L 19.6552,99.3103 L 19.6552,100 L 38.9655,191.724 L 38.9655,192.414 L 39.6552,193.103 L 40.3448,193.793 L 41.0345,193.793 L 78.2759,199.31 L 115.517,199.31 z " style="fill-opacity:0.5;fill:rgb(204,153,0);stroke:rgb(204,153,0);stroke-width:2"/></g>
</svg>
