<?xml version="1.0" encoding="UTF-8" standalone="yes"?>
<!DOCTYPE svg PUBLIC "-//W3C//DTD SVG 1.0//EN" "http://www.w3.org/TR/2001/REC-SVG-20010904/DTD/svg10.dtd">
<svg height="210.000000" width="250.000000" xmlns="http://www.w3.org/2000/svg" xmlns:svg="http://www.w3.org/2000/svg" xmlns:xlink="http://www.w3.org/1999/xlink"><g fill-rule="evenodd"><path d="M -47.0638,270.75 L -47.0638,260.75 L -38.0638,260.75 L -37.5412,260.777 L -29.1557,262.25 L -29.1557,269.25 L -37.5412,270.723 L -38.0638,270.75 L -47.0638,270.75 z " style="fill: none; stroke: black; stroke-width: 1px;"/></g>

<g fill-rule="evenodd"><path d="M -51.9074,165.75 L -51.9074,155.75 L -42.9075,155.75 L -42.3849,155.777 L -33.9993,157.25 L -33.9993,164.25 L -42.3849,165.723 L -42.9075,165.75 L -51.9074,165.75 z " style="fill: none; stroke: black; stroke-width: 1px;"/></g>

<g fill-rule="evenodd"><path d="M -71.1854,246.614 L -71.1854,236.614 L -62.1854,236.614 L -61.6628,236.642 L -53.2773,238.114 L -53.2773,245.114 L -61.6628,246.587 L -62.1854,246.614 L -71.1854,246.614 z " style="fill: none; stroke: black; stroke-width: 1px;"/></g>

<g fill-rule="evenodd"><path d="M -8.53556,136.471 L -8.53556,146.471 L -17.5356,146.471 L -18.0582,146.444 L -26.4437,144.971 L -26.4437,137.971 L -18.0582,136.498 L -17.5356,136.471 L -8.53556,136.471 z " style="fill: none; stroke: black; stroke-width: 1px;"/></g>

<g fill-rule="evenodd"><path d="M -68.5024,172.485 L -58.5024,172.485 L -58.5024,181.485 L -58.5298,182.007 L -60.0024,190.393 L -67.0024,190.393 L -68.475,182.007 L -68.5024,181.485 L -68.5024,172.485 z " style="fill: none; stroke: black; stroke-width: 1px;"/></g>

<g fill-rule="evenodd"><path d="M -31.3741,145.75 L -31.3741,155.75 L -40.374,155.75 L -40.8967,155.723 L -49.2822,154.25 L -49.2822,147.25 L -40.8967,145.777 L -40.374,145.75 L -31.3741,145.75 z " style="fill: none; stroke: black; stroke-width: 1px;"/></g>

<g fill-rule="evenodd"><path d="M 67.7249,270.044 L 67.7249,280.044 L 58.725,280.044 L 58.2023,280.017 L 49.8168,278.544 L 49.8168,271.544 L 58.2024,270.072 L 58.725,270.044 L 67.7249,270.044 z " style="fill: none; stroke: black; stroke-width: 1px;"/></g>

<g fill-rule="evenodd"><path d="M -51.9074,280.75 L -51.9074,270.75 L -42.9075,270.75 L -42.3849,270.777 L -33.9993,272.25 L -33.9993,279.25 L -42.3849,280.723 L -42.9075,280.75 L -51.9074,280.75 z " style="fill: none; stroke: black; stroke-width: 1px;"/></g>

<g fill-rule="evenodd"><path d="M -61.9074,154.577 L -51.9074,154.577 L -51.9074,163.577 L -51.9348,164.099 L -53.4074,172.485 L -60.4074,172.485 L -61.8801,164.099 L -61.9074,163.577 L -61.9074,154.577 z " style="fill: none; stroke: black; stroke-width: 1px;"/></g>

<g fill-rule="evenodd"><path d="M -64.9719,270.75 L -64.9719,260.75 L -55.9719,260.75 L -55.4493,260.777 L -47.0638,262.25 L -47.0638,269.25 L -55.4493,270.723 L -55.9719,270.75 L -64.9719,270.75 z " style="fill: none; stroke: black; stroke-width: 1px;"/></g>

<g fill-rule="evenodd"><path d="M -44.3518,145.75 L -44.3518,135.75 L -35.3518,135.75 L -34.8292,135.777 L -26.4437,137.25 L -26.4437,144.25 L -34.8292,145.723 L -35.3518,145.75 L -44.3518,145.75 z " style="fill: none; stroke: black; stroke-width: 1px;"/></g>

<g fill-rule="evenodd"><path d="M -74.1344,246.614 L -64.1344,246.614 L -64.1344,255.614 L -64.1618,256.137 L -65.6344,264.522 L -72.6344,264.522 L -74.107,256.137 L -74.1344,255.614 L -74.1344,246.614 z " style="fill: none; stroke: black; stroke-width: 1px;"/></g>

<g fill-rule="evenodd"><path d="M -71.9074,154.577 L -61.9074,154.577 L -61.9074,163.577 L -61.9348,164.099 L -63.4074,172.485 L -70.4074,172.485 L -71.8801,164.099 L -71.9074,163.577 L -71.9074,154.577 z " style="fill: none; stroke: black; stroke-width: 1px;"/></g>

<g fill-rule="evenodd"><path d="M -59.0688,136.669 L -49.0688,136.669 L -49.0688,145.669 L -49.0962,146.191 L -50.5688,154.577 L -57.5688,154.577 L -59.0414,146.191 L -59.0688,145.669 L -59.0688,136.669 z " style="fill: none; stroke: black; stroke-width: 1px;"/></g>

<g fill-rule="evenodd"><path d="M -69.8156,280.75 L -69.8156,270.75 L -60.8156,270.75 L -60.2929,270.777 L -51.9074,272.25 L -51.9074,279.25 L -60.293,280.723 L -60.8156,280.75 L -69.8156,280.75 z " style="fill: none; stroke: black; stroke-width: 1px;"/></g>

<g fill-rule="evenodd"><path d="M 44.9732,260.75 L 44.9732,270.75 L 35.9732,270.75 L 35.4506,270.723 L 27.0651,269.25 L 27.0651,262.25 L 35.4506,260.777 L 35.9732,260.75 L 44.9732,260.75 z " style="fill: none; stroke: black; stroke-width: 1px;"/></g>

<g fill-rule="evenodd"><path d="M -29.1557,270.75 L -29.1557,260.75 L -20.1557,260.75 L -19.6331,260.777 L -11.2476,262.25 L -11.2476,269.25 L -19.6331,270.723 L -20.1557,270.75 L -29.1557,270.75 z " style="fill: none; stroke: black; stroke-width: 1px;"/></g>

<g fill-rule="evenodd"><path d="M -33.9993,165.75 L -33.9993,155.75 L -24.9994,155.75 L -24.4767,155.777 L -16.0912,157.25 L -16.0912,164.25 L -24.4768,165.723 L -24.9994,165.75 L -33.9993,165.75 z " style="fill: none; stroke: black; stroke-width: 1px;"/></g>

<g fill-rule="evenodd"><path d="M -31.3741,155.75 L -31.3741,145.75 L -22.3741,145.75 L -21.8515,145.777 L -13.466,147.25 L -13.466,154.25 L -21.8515,155.723 L -22.3741,155.75 L -31.3741,155.75 z " style="fill: none; stroke: black; stroke-width: 1px;"/></g>

<g fill-rule="evenodd"><path d="M -69.0688,136.669 L -59.0688,136.669 L -59.0688,145.669 L -59.0962,146.191 L -60.5688,154.577 L -67.5688,154.577 L -69.0414,146.191 L -69.0688,145.669 L -69.0688,136.669 z " style="fill: none; stroke: black; stroke-width: 1px;"/></g>

<g fill-rule="evenodd"><path d="M 44.9732,270.75 L 44.9732,260.75 L 53.9732,260.75 L 54.4958,260.777 L 62.8813,262.25 L 62.8813,269.25 L 54.4958,270.723 L 53.9732,270.75 L 44.9732,270.75 z " style="fill: none; stroke: black; stroke-width: 1px;"/></g>

<g fill-rule="evenodd"><path d="M 31.9087,280.75 L 31.9087,270.75 L 40.9087,270.75 L 41.4313,270.777 L 49.8168,272.25 L 49.8168,279.25 L 41.4313,280.723 L 40.9087,280.75 L 31.9087,280.75 z " style="fill: none; stroke: black; stroke-width: 1px;"/></g>

<g fill-rule="evenodd"><path d="M -33.9993,280.75 L -33.9993,270.75 L -24.9994,270.75 L -24.4767,270.777 L -16.0912,272.25 L -16.0912,279.25 L -24.4768,280.723 L -24.9994,280.75 L -33.9993,280.75 z " style="fill: none; stroke: black; stroke-width: 1px;"/></g>

<g fill-rule="evenodd"><path d="M 19.6587,200.192 L 21.6009,198.25 L 35.8009,189.25 L 43.1587,189.25 L 43.1587,237.25 L 35.8009,237.25 L 21.6009,228.25 L 19.6587,226.308 L 19.6587,200.192 z " style="fill: none; stroke: black; stroke-width: 1px;"/></g>

<g fill-rule="evenodd"><path d="M -27.3412,200.192 L -25.3991,198.25 L -11.1991,189.25 L -3.84125,189.25 L -3.84125,237.25 L -11.1991,237.25 L -25.3991,228.25 L -27.3412,226.308 L -27.3412,200.192 z " style="fill: none; stroke: black; stroke-width: 1px;"/></g>

<g fill-rule="evenodd"><path d="M -5.14915,260.75 L -7.09125,258.808 L -16.0912,244.608 L -16.0912,237.25 L 31.9087,237.25 L 31.9087,244.608 L 22.9087,258.808 L 20.9666,260.75 L -5.14915,260.75 z " style="fill: none; stroke: black; stroke-width: 1px;"/></g>

<g fill-rule="evenodd"><path d="M -5.14915,189.25 L -7.09125,187.308 L -16.0912,173.108 L -16.0912,165.75 L 31.9087,165.75 L 31.9087,173.108 L 22.9087,187.308 L 20.9666,189.25 L -5.14915,189.25 z " style="fill: none; stroke: black; stroke-width: 1px;"/></g>

<g fill-rule="evenodd"><path d="M -50.8412,200.192 L -48.8991,198.25 L -34.6991,189.25 L -27.3412,189.25 L -27.3412,237.25 L -34.6991,237.25 L -48.8991,228.25 L -50.8412,226.308 L -50.8412,200.192 z " style="fill: none; stroke: black; stroke-width: 1px;"/></g>

<g fill-rule="evenodd"><path d="M 43.1587,200.192 L 45.1009,198.25 L 59.3009,189.25 L 66.6587,189.25 L 66.6587,237.25 L 59.3009,237.25 L 45.1009,228.25 L 43.1587,226.308 L 43.1587,200.192 z " style="fill: none; stroke: black; stroke-width: 1px;"/></g>

<g fill-rule="evenodd"><path d="M -21.4658,165.75 L -19.5237,167.692 L -10.5237,181.892 L -10.5237,189.25 L -58.5237,189.25 L -58.5237,181.892 L -49.5237,167.692 L -47.5816,165.75 L -21.4658,165.75 z " style="fill: none; stroke: black; stroke-width: 1px;"/></g>

<g fill-rule="evenodd"><path d="M -21.4658,237.25 L -19.5237,239.192 L -10.5237,253.392 L -10.5237,260.75 L -58.5237,260.75 L -58.5237,253.392 L -49.5237,239.192 L -47.5816,237.25 L -21.4658,237.25 z " style="fill: none; stroke: black; stroke-width: 1px;"/></g>

<g fill-rule="evenodd"><path d="M 63.3991,237.25 L 65.3412,239.192 L 74.3412,253.392 L 74.3412,260.75 L 26.3412,260.75 L 26.3412,253.392 L 35.3412,239.192 L 37.2833,237.25 L 63.3991,237.25 z " style="fill: none; stroke: black; stroke-width: 1px;"/></g>

<g fill-rule="evenodd"><path d="M 63.3991,165.75 L 65.3413,167.692 L 74.3413,181.892 L 74.3412,189.25 L 26.3412,189.25 L 26.3412,181.892 L 35.3413,167.692 L 37.2834,165.75 L 63.3991,165.75 z " style="fill: none; stroke: black; stroke-width: 1px;"/></g>

<g fill-rule="evenodd"><path d="M 20.9666,142.25 L 22.9087,144.192 L 31.9087,158.392 L 31.9087,165.75 L -16.0912,165.75 L -16.0912,158.392 L -7.09125,144.192 L -5.14915,142.25 L 20.9666,142.25 z " style="fill: none; stroke: black; stroke-width: 1px;"/></g>

<g fill-rule="evenodd"><path d="M 20.9666,260.75 L 22.9087,262.692 L 31.9087,276.892 L 31.9087,284.25 L -16.0912,284.25 L -16.0912,276.892 L -7.09125,262.692 L -5.14915,260.75 L 20.9666,260.75 z " style="fill: none; stroke: black; stroke-width: 1px;"/></g>

<g fill-rule="evenodd"><path d="M -74.3413,200.192 L -72.3991,198.25 L -58.1991,189.25 L -50.8412,189.25 L -50.8412,237.25 L -58.1991,237.25 L -72.3991,228.25 L -74.3413,226.308 L -74.3413,200.192 z " style="fill: none; stroke: black; stroke-width: 1px;"/></g>

<g fill-rule="evenodd"><path d="M 37.2833,165.75 L 35.3412,163.808 L 26.3412,149.608 L 26.3412,142.25 L 74.3412,142.25 L 74.3412,149.608 L 65.3412,163.808 L 63.3991,165.75 L 37.2833,165.75 z " style="fill: none; stroke: black; stroke-width: 1px;"/></g>

<g fill-rule="evenodd"><path d="M -3.84125,200.192 L -1.89911,198.25 L 12.3009,189.25 L 19.6587,189.25 L 19.6587,237.25 L 12.3009,237.25 L -1.89911,228.25 L -3.84125,226.308 L -3.84125,200.192 z " style="fill: none; stroke: black; stroke-width: 1px;"/></g>


</svg>
