<?xml version="1.0" encoding="UTF-8" standalone="yes"?>
<!DOCTYPE svg PUBLIC "-//W3C//DTD SVG 1.0//EN" "http://www.w3.org/TR/2001/REC-SVG-20010904/DTD/svg10.dtd">
<svg height="210.000000" width="250.000000" xmlns="http://www.w3.org/2000/svg" xmlns:svg="http://www.w3.org/2000/svg" xmlns:xlink="http://www.w3.org/1999/xlink"><g fill-rule="evenodd"><path d="M 53.4609,309 L 53.4609,299 L 62.4609,299 L 62.9835,299.027 L 71.369,300.5 L 71.369,307.5 L 62.9835,308.973 L 62.4609,309 L 53.4609,309 z " style="fill: none; stroke: black; stroke-width: 1px;"/></g>

<g fill-rule="evenodd"><path d="M -23.2891,261 L -14.2891,207 L 91.2109,207 L 104.211,220 L 104.211,299 L -14.2891,299 L -23.2891,281 L -23.2891,261 z " style="fill: none; stroke: black; stroke-width: 1px;"/></g>

<g fill-rule="evenodd"><path d="M -27.7644,207 L -23.2891,228.5 L -23.2891,312.5 L -115.264,312.5 L -115.264,207 L -27.7644,207 z " style="fill: none; stroke: black; stroke-width: 1px;"/></g>

<g fill-rule="evenodd"><path d="M 14.849,299 L 14.849,300.732 L 8.11243,304.621 L 4.46282,306.729 L 4.43118,306.739 L 4.1196,306.772 L 3.84903,306.8 L -2.15097,306.4 L -2.42153,306.372 L -2.64995,306.348 L -3.12713,306.193 L -3.66391,306 L -4.65097,305.43 L -7.63454,303.708 L -13.151,300.523 L -13.151,299 L 14.849,299 z " style="fill: none; stroke: black; stroke-width: 1px;"/></g>

<g fill-rule="evenodd"><path d="M -37.0391,158.5 L -43.5391,200 L -50.5391,207 L -79.5391,207 L -85.5391,201 L -100.539,122.5 L -100.539,115.642 L -96.897,112 L -87.1812,112 L -48.0391,113 L -37.0391,155.5 L -37.0391,158.5 z " style="fill: none; stroke: black; stroke-width: 1px;"/></g>

<g fill-rule="evenodd"><path d="M 80.4609,137 L 72.4609,134 L 72.4609,109 L 106.461,109 L 106.461,134 L 97.4609,137 L 80.4609,137 z " style="fill: none; stroke: black; stroke-width: 1px;"/></g>

<g fill-rule="evenodd"><path d="M 71.369,301.923 L 76.4312,299 L 81.969,299 L 81.969,303.5 L 81.369,309.3 L 71.369,309.3 L 71.369,301.923 z " style="fill: none; stroke: black; stroke-width: 1px;"/></g>

<g fill-rule="evenodd"><path d="M -37.0391,142 L -32.0391,137 L 112.961,137 L 117.961,142 L 117.961,204.929 L 115.89,207 L -34.968,207 L -37.0391,204.929 L -37.0391,142 z " style="fill: none; stroke: black; stroke-width: 1px;"/></g>

<g fill-rule="evenodd"><path d="M 104.266,256.066 L 104.429,255.032 L 104.7,254.021 L 105.075,253.044 L 112.111,238.889 L 116.311,238.889 L 123.346,253.044 L 123.721,254.021 L 123.992,255.032 L 124.156,256.066 L 124.211,257.111 L 124.156,258.156 L 123.992,259.19 L 123.721,260.201 L 123.346,261.178 L 122.871,262.111 L 122.301,262.989 L 121.642,263.802 L 120.902,264.542 L 120.089,265.201 L 119.211,265.771 L 118.278,266.246 L 117.301,266.621 L 116.29,266.892 L 115.256,267.056 L 114.211,267.111 L 113.166,267.056 L 112.132,266.892 L 111.121,266.621 L 110.144,266.246 L 109.211,265.771 L 108.333,265.201 L 107.52,264.542 L 106.779,263.802 L 106.121,262.989 L 105.551,262.111 L 105.075,261.178 L 104.7,260.201 L 104.429,259.19 L 104.266,258.156 L 104.211,257.111 L 104.266,256.066 z " style="fill: none; stroke: black; stroke-width: 1px;"/></g>

<g fill-rule="evenodd"><path d="M 72.4609,131 L 72.3953,131.624 L 72.2015,132.22 L 71.8879,132.763 L 71.4683,133.229 L 70.9609,133.598 L 70.3879,133.853 L 69.7745,133.984 L 24.4609,137 L 14.4609,137 L 9.45348,133.229 L 9.03378,132.763 L 8.72028,132.22 L 8.52649,131.624 L 8.46088,131 L 8.46088,108 L 8.52649,107.376 L 8.72028,106.78 L 9.03378,106.237 L 9.45348,105.771 L 9.96088,105.402 L 10.5338,105.147 L 11.1473,105.016 L 11.4609,105 L 68.4609,105 L 69.7745,105.016 L 70.3879,105.147 L 70.9609,105.402 L 71.4683,105.771 L 71.8879,106.237 L 72.2015,106.78 L 72.3953,107.376 L 72.4609,108 L 72.4609,131 z " style="fill: none; stroke: black; stroke-width: 1px;"/></g>

<g fill-rule="evenodd"><path d="M -124.211,124.4 L -107.211,124.4 L -90.8676,173.818 L -90.6417,174.513 L -90.4648,175.222 L -90.3378,175.942 L -88.1857,192.818 L -88.0862,194.4 L -88.1857,195.982 L -88.4828,197.54 L -88.9727,199.048 L -89.6478,200.482 L -90.4973,201.821 L -91.5079,203.042 L -92.6636,204.128 L -93.9462,205.06 L -95.3355,205.823 L -96.8096,206.407 L -98.3453,206.801 L -99.9182,207 L -101.504,207 L -124.211,205.9 L -124.211,124.4 z " style="fill: none; stroke: black; stroke-width: 1px;"/></g>

<g fill-rule="evenodd"><path d="M -28.597,137 L -30.5391,135.058 L -39.5391,120.858 L -39.5391,113.5 L 8.46088,113.5 L 8.46088,120.858 L -0.539116,135.058 L -2.48122,137 L -28.597,137 z " style="fill: none; stroke: black; stroke-width: 1px;"/></g>

<g fill-rule="evenodd"><path d="M 27.4609,300.5 L 36.4609,299 L 44.4609,299 L 53.4609,300.5 L 53.4609,304.912 L 51.8372,307.724 L 50.8118,309.5 L 49.0797,312.5 L 31.9626,312.5 L 27.4609,304.703 L 27.4609,300.5 z " style="fill: none; stroke: black; stroke-width: 1px;"/></g>

<g fill-rule="evenodd"><path d="M 18.9693,314.956 L 18.1423,314.825 L 17.891,314.768 L 17.3334,314.608 L 16.5517,314.308 L 16.0878,314.084 L 15.8056,313.928 L 15.1033,313.472 L 14.5006,312.988 L 14.4525,312.945 L 13.8604,312.353 L 13.3334,311.702 L 13.2217,311.545 L 12.8774,311 L 12.4972,310.254 L 12.3254,309.837 L 12.1971,309.472 L 11.9804,308.663 L 11.8639,307.964 L 11.8494,307.836 L 11.8056,307 L 11.8494,306.164 L 11.8639,306.036 L 11.9804,305.337 L 12.1971,304.528 L 12.3254,304.163 L 12.4972,303.746 L 12.8774,303 L 13.2217,302.455 L 13.3334,302.298 L 13.8604,301.647 L 14.4525,301.055 L 14.5006,301.012 L 15.1033,300.528 L 15.8056,300.072 L 16.0878,299.916 L 16.5517,299.692 L 17.3334,299.392 L 17.891,299.232 L 18.1423,299.175 L 18.9693,299.044 L 19.8056,299 L 20.6418,299.044 L 21.4688,299.175 L 21.7201,299.232 L 22.2777,299.392 L 23.0594,299.692 L 23.5233,299.916 L 23.8056,300.072 L 24.5078,300.528 L 25.1105,301.012 L 25.1586,301.055 L 25.7507,301.647 L 26.2777,302.298 L 26.3894,302.455 L 26.7338,303 L 27.1139,303.746 L 27.2857,304.163 L 27.414,304.528 L 27.6307,305.337 L 27.7472,306.036 L 27.7617,306.164 L 27.8056,307 L 27.7617,307.836 L 27.7472,307.964 L 27.6307,308.663 L 27.414,309.472 L 27.2857,309.837 L 27.1139,310.254 L 26.7338,311 L 26.3894,311.545 L 26.2777,311.702 L 25.7507,312.353 L 25.1586,312.945 L 25.1105,312.988 L 24.5078,313.472 L 23.8056,313.928 L 23.5233,314.084 L 23.0594,314.308 L 22.2777,314.608 L 21.7201,314.768 L 21.4688,314.825 L 20.6418,314.956 L 19.8056,315 L 18.9693,314.956 z " style="fill: none; stroke: black; stroke-width: 1px;"/></g>


</svg>
