<?xml version="1.0" encoding="UTF-8" standalone="yes"?>
<!DOCTYPE svg PUBLIC "-//W3C//DTD SVG 1.0//EN" "http://www.w3.org/TR/2001/REC-SVG-20010904/DTD/svg10.dtd">
<svg height="210.000000" width="250.000000" xmlns="http://www.w3.org/2000/svg" xmlns:svg="http://www.w3.org/2000/svg" xmlns:xlink="http://www.w3.org/1999/xlink"><g fill-rule="evenodd"><path d="M -111.779,204.081 L -72.6384,227.781 L -72.6384,272.031 L -76.8884,276.281 L -79.8884,276.281 L -122.388,265.281 L -122.388,229.781 L -121.998,204.081 L -116.888,201.131 L -111.779,204.081 z " style="fill: none; stroke: black; stroke-width: 1px;"/></g>

<g fill-rule="evenodd"><path d="M -108.398,136.137 L -108.398,112.137 L -72.3977,112.137 L -72.3977,136.137 L -108.398,136.137 z " style="fill: none; stroke: black; stroke-width: 1px;"/></g>

<g fill-rule="evenodd"><path d="M 28.1023,152.469 L 5.10234,149.469 L 1.10234,145.469 L 1.10234,123.469 L 5.10234,119.469 L 28.1023,116.469 L 53.1023,116.469 L 53.1023,152.469 L 28.1023,152.469 z " style="fill: none; stroke: black; stroke-width: 1px;"/></g>

<g fill-rule="evenodd"><path d="M -87.7942,211.111 L -85.1018,166.918 L -61.7856,158.249 L -60.3714,158.249 L -58.25,160.37 L -19.4094,199.211 L -19.4094,200.726 L -22.1018,244.918 L -45.418,253.587 L -46.8322,253.587 L -48.9536,251.466 L -86.0767,214.343 L -87.7942,212.625 L -87.7942,211.111 z " style="fill: none; stroke: black; stroke-width: 1px;"/></g>

<g fill-rule="evenodd"><path d="M 42.1853,301.406 L 47.6608,281.278 L 54.5211,269.395 L 55.3894,268.595 L 75.1928,268.595 L 76.8608,269.395 L 84.1608,280.895 L 89.1363,301.406 L 89.4608,304.395 L 89.3674,305.284 L 89.3297,305.643 L 88.9421,306.836 L 88.3149,307.922 L 87.4756,308.854 L 86.4608,309.592 L 85.3149,310.102 L 84.088,310.363 L 83.4608,310.395 L 47.8608,310.395 L 47.2336,310.363 L 46.0067,310.102 L 44.8608,309.592 L 43.846,308.854 L 43.0067,307.922 L 42.3795,306.836 L 41.9919,305.643 L 41.8608,304.395 L 42.1853,301.406 z " style="fill: none; stroke: black; stroke-width: 1px;"/></g>

<g fill-rule="evenodd"><path d="M 87.0722,172.249 L 86.9785,172.509 L 86.7911,173.027 L 48.7383,278.297 L 38.8256,305.72 L 36.6639,311.7 L 36.5563,311.972 L 36.4299,312.244 L 36.365,312.369 L 36.2843,312.513 L 36.1198,312.777 L 35.9556,313.008 L 35.9367,313.033 L 35.736,313.279 L 35.5191,313.514 L 35.4409,313.591 L 35.2875,313.733 L 35.0435,313.937 L 34.8341,314.093 L 34.7893,314.124 L 34.5275,314.291 L 34.2606,314.44 L 34.156,314.493 L 33.9913,314.57 L 33.722,314.68 L 33.4553,314.772 L 33.4328,314.779 L 33.1932,314.846 L 32.9377,314.904 L 32.6925,314.946 L 32.4544,314.976 L 31.9617,315 L 19.8033,315 L 19.2413,314.968 L 19.192,314.963 L 18.6754,314.871 L 18.5998,314.853 L 18.117,314.707 L 18.0322,314.676 L 17.5778,314.477 L 17.495,314.435 L 17.0692,314.186 L 17.0376,314.166 L 16.802,313.999 L 16.6013,313.84 L 16.5611,313.806 L 16.3188,313.586 L 16.1821,313.448 L 16.0794,313.337 L 15.8478,313.058 L 15.8175,313.019 L 15.6291,312.753 L 15.5035,312.552 L 15.4283,312.421 L 15.2502,312.066 L 15.2393,312.042 L 15.0986,311.693 L 15.0329,311.498 L 14.9768,311.306 L 14.8904,310.929 L 14.8868,310.91 L 14.8295,310.512 L 14.8154,310.348 L 14.8046,310.116 L 14.8087,309.766 L 14.8107,309.727 L 14.8457,309.35 L 14.8685,309.195 L 14.9066,308.989 L 14.9902,308.646 L 16.4558,303.437 L 23.027,280.084 L 56.811,160.023 L 65.182,130.274 L 65.5152,129.09 L 66.3604,126.086 L 66.5961,125.249 L 66.9773,124.96 L 67.3586,124.671 L 68.1211,124.094 L 69.7732,122.842 L 70.4087,122.361 L 72.3065,122.361 L 73.7023,122.361 L 80.6809,122.361 L 83.4723,122.361 L 87.0722,164.061 L 87.0722,172.249 z " style="fill: none; stroke: black; stroke-width: 1px;"/></g>

<g fill-rule="evenodd"><path d="M -53.1384,311.918 L -72.6384,292.418 L -72.6384,268.418 L -66.1721,261.952 L -64.1384,259.918 L -8.63843,259.918 L -3.13843,259.968 L 14.5763,268.918 L 17.3616,271.618 L 17.3616,300.218 L 14.0763,303.418 L -3.13843,309.318 L -17.1744,311.918 L -53.1384,311.918 z " style="fill: none; stroke: black; stroke-width: 1px;"/></g>

<g fill-rule="evenodd"><path d="M -52.2838,157 L -54.4255,156.072 L -70.9477,147.5 L -72.3977,146.05 L -72.3977,117.45 L -70.9477,116 L -51.6929,105 L -32.8977,105 L -1.13976,114.5 L 0.519644,116.159 L 1.10234,116.742 L 1.10234,145.258 L -1.13976,147.5 L -32.8977,157 L -52.2838,157 z " style="fill: none; stroke: black; stroke-width: 1px;"/></g>

<g fill-rule="evenodd"><path d="M 122.388,190.891 L 99.6811,191.991 L 98.0957,191.991 L 96.5228,191.792 L 94.9872,191.398 L 93.5131,190.814 L 92.1238,190.05 L 90.8411,189.118 L 89.6854,188.033 L 88.6748,186.812 L 87.8253,185.473 L 87.1502,184.038 L 86.6603,182.531 L 86.3632,180.973 L 86.2637,179.391 L 86.3632,177.809 L 88.5153,160.933 L 88.6423,160.213 L 88.8192,159.504 L 89.0451,158.808 L 89.319,158.13 L 89.6395,157.473 L 90.0051,156.84 L 90.414,156.234 L 90.8641,155.658 L 91.3533,155.114 L 91.8793,154.607 L 92.4394,154.137 L 93.0309,153.707 L 93.6509,153.319 L 94.2965,152.976 L 94.9644,152.679 L 95.6515,152.429 L 96.3543,152.227 L 97.0695,152.075 L 97.7935,151.973 L 98.5229,151.922 L 98.8884,151.916 L 105.388,151.891 L 120.888,151.891 L 122.388,153.391 L 122.388,190.891 z " style="fill: none; stroke: black; stroke-width: 1px;"/></g>

<g fill-rule="evenodd"><path d="M 86.0215,116.891 L 111.022,116.891 L 111.022,151.891 L 86.0215,151.891 L 86.0215,116.891 z " style="fill: none; stroke: black; stroke-width: 1px;"/></g>

<g fill-rule="evenodd"><path d="M -81.8977,136.137 L -72.3977,145.779 L -72.3977,148.637 L -92.8977,178.137 L -97.8977,183.137 L -112.898,183.137 L -114.398,181.637 L -114.398,136.137 L -81.8977,136.137 z " style="fill: none; stroke: black; stroke-width: 1px;"/></g>

<g fill-rule="evenodd"><path d="M -19.4094,155.418 L -15.9094,151.918 L 23.8774,151.918 L 30.5906,158.631 L 30.5906,253.205 L 23.8774,259.918 L -15.9094,259.918 L -19.4094,256.418 L -19.4094,155.418 z " style="fill: none; stroke: black; stroke-width: 1px;"/></g>

<g fill-rule="evenodd"><path d="M 111.968,283.502 L 109.768,283.502 L 78.9676,271.502 L 73.9676,266.502 L 73.9676,208.502 L 78.9676,203.502 L 109.768,191.502 L 111.968,191.502 L 111.968,283.502 z " style="fill: none; stroke: black; stroke-width: 1px;"/></g>


</svg>
